<?xml version="1.0" encoding="UTF-8"?>
<svg id="Clans" xmlns="http://www.w3.org/2000/svg" viewBox="0 0 444.8 444.81">
  <defs>
    <style>
      .cls-1 {
        fill: #231f20;
      }

      .cls-2 {
        fill: #fff;
      }

      .cls-3 {
        fill: #ed1c24;
      }
    </style>
  </defs>
  <circle class="cls-1" cx="222.02" cy="222.02" r="221.07"/>
  <g>
    <path class="cls-2" d="M262.18,410.26c-17.96,9.43-35.09,14.18-55.08,8.7-21.08-5.78-41.53-19.97-57.55-34.79-23.69-21.91-40.12-51.14-44.86-83.44-8.47-3.49-15.5-9-21.36-16.18-9.29-11.39-16.22-24.13-21.52-37.9-4.34-13.72-7.51-27.45-8.45-41.81-.41-6.36.3-12.4,2.28-18.24,3.2-9.42,14.72-14.28,21.63-12.25l7.12,2.09c-1.89-11.33-2.28-22.53-1.79-34.06.94-21.74,4.72-42.5,14.11-62.13,10.42-21.8,27.67-38.88,49.44-49.38,21.49-10.36,45.65-14.69,69.56-15.36,17.08-.48,33.72.2,50.58,2.75,73.71,11.15,98.03,57.32,99.56,127.96.22,10.07-.25,19.69-2.27,29.54l.27.54c3.91-1.42,7.23-2.47,11.2-2.18,8.6.63,15.46,6.7,17.91,14.96,4.75,16.01-.95,39.78-5.99,56.2-5.61,15.37-13.62,29.55-24.58,41.63-5.48,6.03-11.65,10.81-19.22,13.79-5.56,36.48-24.81,67.62-53.2,90.75-8.8,7.17-17.74,13.55-27.78,18.82ZM127.69,291.38c.98,14.23,5.19,27.64,11.87,40.02,14.96,27.68,39.52,49.27,68.88,60.42,11.65,4.43,17.48,4.92,29.23.64,30.4-11.08,55.72-33.21,70.98-61.75,6.89-12.89,10.59-26.75,11.82-41.23.54-6.44,6.11-10.95,12.31-11.08,4.95-2.76,9.11-6.1,12.69-10.54,6.96-8.63,12.77-18.05,16.56-28.57,3.21-8.93,4.91-17.98,6.53-27.28.48-2.76.36-5.29.11-8.15-2.82,1.6-5.06,3.43-7.13,5.77-3.73,4.2-9.11,5.93-14.54,4.09-3.16,3.86-6.5,7.24-10.83,9.78l-.69-40.33c-.23-13.45-1.33-26.44-3.38-39.72-2.04-13.22-5.94-29.3-14.27-39.58-4.36-5.38-10.53-8.52-17.34-9.98-9.51-2.04-19.11-.21-27.67,4.38-24.96,13.37-39.88,46.42-48.9,72.71-6.6-18.55-13.53-35.07-24.78-50.51-9.85-13.14-23.53-25.14-40.33-26.59-9.48-.81-18.99,1.44-26.27,7.66-10.89,9.3-15.9,24.88-18.28,38.91-4.47,26.42-3.23,56.11-2.16,83.01l-10.42-9.72c-5.89,2.41-11.81.24-15.75-4.43-1.76-2.08-3.82-3.65-6.37-4.91-.15,2.7-.24,5.27.28,8.07,3.85,20.93,8.51,35.39,21.04,52.82,3.84,5.33,8.39,9.67,13.95,13.06,7.38.26,12.33,5.56,12.85,13.05Z"/>
    <g>
      <path class="cls-3" d="M255.52,360.88c-6.78-6.53-12.04-13.79-16.31-22.1-10.13,2.57-20.23,2.68-30.52-.04-4.36,8.26-9.62,15.68-16.49,22.23l-.02-27.62c-11.19-5.27-21.72-11.53-31.48-19.79,22.25,2.99,43.62,4.97,65.67,4.82,20.36-.13,39.95-2.1,60.64-4.76-9.71,8.25-20.08,14.46-31.39,19.71l-.1,27.55Z"/>
      <g>
        <path class="cls-3" d="M318.83,218.55c-.11,18.27-18.27,43.98-35.55,46.55-18.68,2.78-42.75-8.14-43.14-29.23l78.69-17.32Z"/>
        <path class="cls-3" d="M174.89,265.45c-4.46-.33-8.27-2.03-11.97-4.14-11.48-6.54-21.17-15.97-28.34-27.05-3.09-4.77-5.33-9.71-5.74-15.74l78.78,17.33c.13,17.8-15.45,30.88-32.74,29.6Z"/>
      </g>
    </g>
  </g>
</svg>